<svg width="40" height="47" viewBox="0 0 40 47" fill="none" xmlns="http://www.w3.org/2000/svg">
<path d="M2.40603 25.7001C1.3011 26.3385 0.494798 27.3894 0.164294 28.6219C-0.16621 29.8545 0.00612505 31.1678 0.643432 32.2733L2.02503 34.6632L36.211 14.9282C37.0726 14.4308 37.8278 13.7685 38.4333 12.9792C39.0389 12.1899 39.483 11.289 39.7404 10.328C39.9977 9.36699 40.0631 8.3647 39.933 7.37839C39.8029 6.39208 39.4797 5.44107 38.982 4.57968L2.40603 25.7001Z" fill="#00A98F"/>
<path d="M10.4917 37.4149L11.8733 39.8048L31.3966 28.5326C32.2601 28.0355 33.0169 27.3729 33.6239 26.5828C34.2308 25.7927 34.6759 24.8907 34.9337 23.9283C35.1915 22.9659 35.2568 21.9621 35.126 20.9744C34.9952 19.9868 34.6708 19.0346 34.1714 18.1725L12.2543 30.8378C11.7067 31.1539 11.2267 31.5748 10.8417 32.0764C10.4568 32.578 10.1744 33.1505 10.0107 33.7613C9.84704 34.372 9.80528 35.009 9.8878 35.6359C9.97033 36.2628 10.1755 36.8673 10.4917 37.4149Z" fill="#00A98F"/>
<path d="M20.4054 42.1716L22.7145 46.1779C24.8145 44.9648 26.3468 42.9675 26.9747 40.6249C27.6025 38.2824 27.2745 35.7865 26.0626 33.6857L22.0564 35.9948C21.5421 36.2917 21.0914 36.6871 20.7301 37.1583C20.3687 37.6295 20.1038 38.1673 19.9505 38.741C19.7971 39.3147 19.7584 39.9129 19.8364 40.5016C19.9145 41.0902 20.1078 41.6577 20.4054 42.1716Z" fill="#00A98F"/>
<path d="M24.4154 10.9143L2.18279 0C0.459529 3.52204 0.16876 7.57498 1.3716 11.3069C2.57444 15.0389 5.17721 18.1592 8.63284 20.0121L24.4154 10.9143Z" fill="#00A98F"/>
</svg>
